%TF.GenerationSoftware,KiCad,Pcbnew,10.0.5*%
%TF.CreationDate,2026-09-26T09:55:05+05:30*%
%TF.ProjectId,uhm alarm clock,75686d20-616c-4617-926d-20636c6f636b,rev?*%
%TF.SameCoordinates,Original*%
%TF.FileFunction,Soldermask,Top*%
%TF.FilePolarity,Negative*%
%FSLAX46Y46*%
G04 Gerber Fmt 4.6, Leading zero omitted, Abs format (unit mm)*
G04 Created by KiCad (PCBNEW 10.0.5) date 2026-09-26 09:55:05*
%MOMM*%
%LPD*%
G01*
G04 APERTURE LIST*
G04 Aperture macros list*
%AMRoundRect*
0 Rectangle with rounded corners*
0 $1 Rounding radius*
0 $2 $3 $4 $5 $6 $7 $8 $9 X,Y pos of 4 corners*
0 Add a 4 corners polygon primitive as box body*
4,1,4,$2,$3,$4,$5,$6,$7,$8,$9,$2,$3,0*
0 Add four circle primitives for the rounded corners*
1,1,$1+$1,$2,$3*
1,1,$1+$1,$4,$5*
1,1,$1+$1,$6,$7*
1,1,$1+$1,$8,$9*
0 Add four rect primitives between the rounded corners*
20,1,$1+$1,$2,$3,$4,$5,0*
20,1,$1+$1,$4,$5,$6,$7,0*
20,1,$1+$1,$6,$7,$8,$9,0*
20,1,$1+$1,$8,$9,$2,$3,0*%
G04 Aperture macros list end*
%ADD10C,1.700000*%
%ADD11C,4.000000*%
%ADD12C,2.200000*%
%ADD13RoundRect,0.500000X-1.000000X-0.500000X1.000000X-0.500000X1.000000X0.500000X-1.000000X0.500000X0*%
%ADD14RoundRect,0.250000X-1.500000X-1.500000X1.500000X-1.500000X1.500000X1.500000X-1.500000X1.500000X0*%
%ADD15RoundRect,0.250000X-0.900000X-0.400000X0.900000X-0.400000X0.900000X0.400000X-0.900000X0.400000X0*%
%ADD16C,1.300000*%
%ADD17C,3.200000*%
%ADD18R,2.000000X2.000000*%
%ADD19C,2.000000*%
%ADD20R,1.700000X1.700000*%
G04 APERTURE END LIST*
D10*
%TO.C,SW4*%
X170840000Y-69000000D03*
D11*
X175920000Y-69000000D03*
D10*
X181000000Y-69000000D03*
D12*
X178460000Y-63920000D03*
X172110000Y-66460000D03*
%TD*%
D13*
%TO.C,U1*%
X142900000Y-39280000D03*
X142900000Y-41820000D03*
X142900000Y-44360000D03*
X142900000Y-46900000D03*
X142900000Y-49440000D03*
X142900000Y-51980000D03*
X142900000Y-54520000D03*
X159900000Y-54520000D03*
X159900000Y-51980000D03*
X159900000Y-49440000D03*
X159900000Y-46900000D03*
X159900000Y-44360000D03*
X159900000Y-41820000D03*
X159900000Y-39280000D03*
D14*
X153500000Y-47500000D03*
D15*
X146900000Y-46500000D03*
X146900000Y-44600000D03*
D16*
X150130000Y-38280000D03*
X150130000Y-40860000D03*
X150130000Y-43400000D03*
X152670000Y-43400000D03*
X152670000Y-40860000D03*
X152670000Y-38280000D03*
%TD*%
D10*
%TO.C,SW2*%
X120935000Y-68995000D03*
D11*
X126015000Y-68995000D03*
D10*
X131095000Y-68995000D03*
D12*
X128555000Y-63915000D03*
X122205000Y-66455000D03*
%TD*%
D17*
%TO.C,H2*%
X182500000Y-27000000D03*
%TD*%
D10*
%TO.C,SW1*%
X96920000Y-69000000D03*
D11*
X102000000Y-69000000D03*
D10*
X107080000Y-69000000D03*
D12*
X104540000Y-63920000D03*
X98190000Y-66460000D03*
%TD*%
D17*
%TO.C,H4*%
X182500000Y-85500000D03*
%TD*%
D10*
%TO.C,SW3*%
X145920000Y-68995000D03*
D11*
X151000000Y-68995000D03*
D10*
X156080000Y-68995000D03*
D12*
X153540000Y-63915000D03*
X147190000Y-66455000D03*
%TD*%
D17*
%TO.C,H1*%
X95000000Y-26500000D03*
%TD*%
D18*
%TO.C,BZ1*%
X154500000Y-30300000D03*
D19*
X154500000Y-22700000D03*
%TD*%
D17*
%TO.C,H3*%
X93000000Y-83000000D03*
%TD*%
D20*
%TO.C,J1*%
X129540000Y-46000000D03*
D10*
X127000000Y-46000000D03*
X124460000Y-46000000D03*
X121920000Y-46000000D03*
X119380000Y-46000000D03*
X116840000Y-46000000D03*
X114300000Y-46000000D03*
X111760000Y-46000000D03*
%TD*%
M02*
