M48
; DRILL file KiCad 10.0.5 date 2026-09-26T09:58:26
; FORMAT={-:-/ absolute / metric / decimal}
; #@! TF.CreationDate,2026-09-26T09:58:26+05:30
; #@! TF.GenerationSoftware,Kicad,Pcbnew,10.0.5
; #@! TF.FileFunction,Plated,1,2,PTH
FMAT,2
METRIC
; #@! TA.AperFunction,Plated,PTH,ViaDrill
T1C0.300
; #@! TA.AperFunction,Plated,PTH,ComponentDrill
T2C1.000
; #@! TA.AperFunction,Plated,PTH,ComponentDrill
T3C1.500
%
G90
G05
T1
X128.0Y-46.0
X139.75Y-47.2
X139.75Y-48.0
X140.25Y-48.75
X156.75Y-47.75
X157.0Y-44.5
X157.25Y-49.75
X157.25Y-52.0
T2
X111.76Y-46.0
X114.3Y-46.0
X116.84Y-46.0
X119.38Y-46.0
X121.92Y-46.0
X124.46Y-46.0
X127.0Y-46.0
X129.54Y-46.0
X154.5Y-22.7
X154.5Y-30.3
T3
X98.19Y-66.46
X104.54Y-63.92
X122.205Y-66.455
X128.555Y-63.915
X147.19Y-66.455
X153.54Y-63.915
X172.11Y-66.46
X178.46Y-63.92
M30
