%TF.GenerationSoftware,KiCad,Pcbnew,10.0.5*%
%TF.CreationDate,2026-09-26T09:55:05+05:30*%
%TF.ProjectId,uhm alarm clock,75686d20-616c-4617-926d-20636c6f636b,rev?*%
%TF.SameCoordinates,Original*%
%TF.FileFunction,Profile,NP*%
%FSLAX46Y46*%
G04 Gerber Fmt 4.6, Leading zero omitted, Abs format (unit mm)*
G04 Created by KiCad (PCBNEW 10.0.5) date 2026-09-26 09:55:05*
%MOMM*%
%LPD*%
G01*
G04 APERTURE LIST*
%TA.AperFunction,Profile*%
%ADD10C,0.050000*%
%TD*%
%ADD11C,0.150000*%
G04 APERTURE END LIST*
D10*
X82500000Y-18000000D02*
X189500000Y-18000000D01*
X189500000Y-93000000D01*
X82500000Y-93000000D01*
X82500000Y-18000000D01*
D11*
X120086779Y-32369819D02*
X120086779Y-31369819D01*
X120086779Y-31369819D02*
X120324874Y-31369819D01*
X120324874Y-31369819D02*
X120467731Y-31417438D01*
X120467731Y-31417438D02*
X120562969Y-31512676D01*
X120562969Y-31512676D02*
X120610588Y-31607914D01*
X120610588Y-31607914D02*
X120658207Y-31798390D01*
X120658207Y-31798390D02*
X120658207Y-31941247D01*
X120658207Y-31941247D02*
X120610588Y-32131723D01*
X120610588Y-32131723D02*
X120562969Y-32226961D01*
X120562969Y-32226961D02*
X120467731Y-32322200D01*
X120467731Y-32322200D02*
X120324874Y-32369819D01*
X120324874Y-32369819D02*
X120086779Y-32369819D01*
X121086779Y-31846009D02*
X121420112Y-31846009D01*
X121562969Y-32369819D02*
X121086779Y-32369819D01*
X121086779Y-32369819D02*
X121086779Y-31369819D01*
X121086779Y-31369819D02*
X121562969Y-31369819D01*
X121991541Y-31846009D02*
X122324874Y-31846009D01*
X122467731Y-32369819D02*
X121991541Y-32369819D01*
X121991541Y-32369819D02*
X121991541Y-31369819D01*
X121991541Y-31369819D02*
X122467731Y-31369819D01*
X122896303Y-31846009D02*
X123229636Y-31846009D01*
X123372493Y-32369819D02*
X122896303Y-32369819D01*
X122896303Y-32369819D02*
X122896303Y-31369819D01*
X122896303Y-31369819D02*
X123372493Y-31369819D01*
X123801065Y-31846009D02*
X124134398Y-31846009D01*
X124277255Y-32369819D02*
X123801065Y-32369819D01*
X123801065Y-32369819D02*
X123801065Y-31369819D01*
X123801065Y-31369819D02*
X124277255Y-31369819D01*
X124705827Y-31846009D02*
X125039160Y-31846009D01*
X125182017Y-32369819D02*
X124705827Y-32369819D01*
X124705827Y-32369819D02*
X124705827Y-31369819D01*
X124705827Y-31369819D02*
X125182017Y-31369819D01*
X125610589Y-32369819D02*
X125610589Y-31369819D01*
X125610589Y-31369819D02*
X125991541Y-31369819D01*
X125991541Y-31369819D02*
X126086779Y-31417438D01*
X126086779Y-31417438D02*
X126134398Y-31465057D01*
X126134398Y-31465057D02*
X126182017Y-31560295D01*
X126182017Y-31560295D02*
X126182017Y-31703152D01*
X126182017Y-31703152D02*
X126134398Y-31798390D01*
X126134398Y-31798390D02*
X126086779Y-31846009D01*
X126086779Y-31846009D02*
X125991541Y-31893628D01*
X125991541Y-31893628D02*
X125610589Y-31893628D01*
X126562970Y-32084104D02*
X127039160Y-32084104D01*
X126467732Y-32369819D02*
X126801065Y-31369819D01*
X126801065Y-31369819D02*
X127134398Y-32369819D01*
X127467732Y-32369819D02*
X127467732Y-31369819D01*
X127467732Y-31369819D02*
X128039160Y-32369819D01*
X128039160Y-32369819D02*
X128039160Y-31369819D01*
X128467732Y-32322200D02*
X128610589Y-32369819D01*
X128610589Y-32369819D02*
X128848684Y-32369819D01*
X128848684Y-32369819D02*
X128943922Y-32322200D01*
X128943922Y-32322200D02*
X128991541Y-32274580D01*
X128991541Y-32274580D02*
X129039160Y-32179342D01*
X129039160Y-32179342D02*
X129039160Y-32084104D01*
X129039160Y-32084104D02*
X128991541Y-31988866D01*
X128991541Y-31988866D02*
X128943922Y-31941247D01*
X128943922Y-31941247D02*
X128848684Y-31893628D01*
X128848684Y-31893628D02*
X128658208Y-31846009D01*
X128658208Y-31846009D02*
X128562970Y-31798390D01*
X128562970Y-31798390D02*
X128515351Y-31750771D01*
X128515351Y-31750771D02*
X128467732Y-31655533D01*
X128467732Y-31655533D02*
X128467732Y-31560295D01*
X128467732Y-31560295D02*
X128515351Y-31465057D01*
X128515351Y-31465057D02*
X128562970Y-31417438D01*
X128562970Y-31417438D02*
X128658208Y-31369819D01*
X128658208Y-31369819D02*
X128896303Y-31369819D01*
X128896303Y-31369819D02*
X129039160Y-31417438D01*
X129467732Y-32369819D02*
X129467732Y-31369819D01*
X129467732Y-31846009D02*
X130039160Y-31846009D01*
X130039160Y-32369819D02*
X130039160Y-31369819D01*
X130515351Y-32369819D02*
X130515351Y-31369819D01*
X130515351Y-31846009D02*
X131086779Y-31846009D01*
X131086779Y-32369819D02*
X131086779Y-31369819D01*
M02*
