%TF.GenerationSoftware,KiCad,Pcbnew,10.0.5*%
%TF.CreationDate,2026-09-26T09:55:05+05:30*%
%TF.ProjectId,uhm alarm clock,75686d20-616c-4617-926d-20636c6f636b,rev?*%
%TF.SameCoordinates,Original*%
%TF.FileFunction,Copper,L2,Bot*%
%TF.FilePolarity,Positive*%
%FSLAX46Y46*%
G04 Gerber Fmt 4.6, Leading zero omitted, Abs format (unit mm)*
G04 Created by KiCad (PCBNEW 10.0.5) date 2026-09-26 09:55:05*
%MOMM*%
%LPD*%
G01*
G04 APERTURE LIST*
%TA.AperFunction,ComponentPad*%
%ADD10C,2.200000*%
%TD*%
%TA.AperFunction,ComponentPad*%
%ADD11R,2.000000X2.000000*%
%TD*%
%TA.AperFunction,ComponentPad*%
%ADD12C,2.000000*%
%TD*%
%TA.AperFunction,ComponentPad*%
%ADD13R,1.700000X1.700000*%
%TD*%
%TA.AperFunction,ComponentPad*%
%ADD14C,1.700000*%
%TD*%
%TA.AperFunction,ViaPad*%
%ADD15C,0.600000*%
%TD*%
%TA.AperFunction,Conductor*%
%ADD16C,0.200000*%
%TD*%
G04 APERTURE END LIST*
D10*
%TO.P,SW4,1,1_1*%
%TO.N,GND*%
X178460000Y-63920000D03*
%TO.P,SW4,2,2_2*%
%TO.N,Net-(U1-GPIO2_A0_D0)*%
X172110000Y-66460000D03*
%TD*%
%TO.P,SW2,1,1_1*%
%TO.N,GND*%
X128555000Y-63915000D03*
%TO.P,SW2,2,2_2*%
%TO.N,Net-(U1-GPIO4_A2_D2)*%
X122205000Y-66455000D03*
%TD*%
%TO.P,SW1,1,1_1*%
%TO.N,GND*%
X104540000Y-63920000D03*
%TO.P,SW1,2,2_2*%
%TO.N,Net-(U1-GPIO5_A3_D3)*%
X98190000Y-66460000D03*
%TD*%
%TO.P,SW3,1,1_1*%
%TO.N,GND*%
X153540000Y-63915000D03*
%TO.P,SW3,2,2_2*%
%TO.N,Net-(U1-GPIO3_A1_D1)*%
X147190000Y-66455000D03*
%TD*%
D11*
%TO.P,BZ1,1,+_1*%
%TO.N,Net-(BZ1-+)*%
X154500000Y-30300000D03*
D12*
%TO.P,BZ1,2,-_2*%
%TO.N,GND*%
X154500000Y-22700000D03*
%TD*%
D13*
%TO.P,J1,1,Pin_1_1*%
%TO.N,GND*%
X129540000Y-46000000D03*
D14*
%TO.P,J1,2,Pin_2_2*%
%TO.N,+3.3V*%
X127000000Y-46000000D03*
%TO.P,J1,3,Pin_3_3*%
%TO.N,/SCL*%
X124460000Y-46000000D03*
%TO.P,J1,4,Pin_4_4*%
%TO.N,/SDA*%
X121920000Y-46000000D03*
%TO.P,J1,5,Pin_5_5*%
%TO.N,/RST*%
X119380000Y-46000000D03*
%TO.P,J1,6,Pin_6_6*%
%TO.N,/DC*%
X116840000Y-46000000D03*
%TO.P,J1,7,Pin_7_7*%
%TO.N,/CS*%
X114300000Y-46000000D03*
%TO.P,J1,8,Pin_8_8*%
%TO.N,/BL*%
X111760000Y-46000000D03*
%TD*%
D15*
%TO.N,/RST*%
X157250000Y-52000000D03*
X140250000Y-48750000D03*
%TO.N,/SCL*%
X157250000Y-49750000D03*
X139750000Y-47199997D03*
%TO.N,/SDA*%
X139750000Y-48000000D03*
X156750000Y-47750000D03*
%TO.N,+3.3V*%
X128000000Y-46000000D03*
X157000000Y-44500000D03*
%TD*%
%TO.N,/RST*%
D16*
X154000000Y-48750000D02*
X157250000Y-52000000D01*
X140250000Y-48750000D02*
X154000000Y-48750000D01*
%TO.N,/SCL*%
X157350000Y-47501471D02*
X157350000Y-49650000D01*
X139750000Y-47199997D02*
X139799997Y-47150000D01*
X157350000Y-49650000D02*
X157250000Y-49750000D01*
X156998529Y-47150000D02*
X157350000Y-47501471D01*
X139799997Y-47150000D02*
X156998529Y-47150000D01*
%TO.N,/SDA*%
X156500000Y-48000000D02*
X156750000Y-47750000D01*
X139750000Y-48000000D02*
X156500000Y-48000000D01*
%TO.N,+3.3V*%
X128000000Y-45240000D02*
X128740000Y-44500000D01*
X128000000Y-46000000D02*
X128000000Y-45240000D01*
X128740000Y-44500000D02*
X157000000Y-44500000D01*
%TD*%
%TA.AperFunction,Conductor*%
%TO.N,GND*%
G36*
X188942539Y-18520185D02*
G01*
X188988294Y-18572989D01*
X188999500Y-18624500D01*
X188999500Y-92375500D01*
X188979815Y-92442539D01*
X188927011Y-92488294D01*
X188875500Y-92499500D01*
X83124500Y-92499500D01*
X83057461Y-92479815D01*
X83011706Y-92427011D01*
X83000500Y-92375500D01*
X83000500Y-85378711D01*
X180649500Y-85378711D01*
X180649500Y-85621288D01*
X180681161Y-85861785D01*
X180743947Y-86096104D01*
X180836773Y-86320205D01*
X180836776Y-86320212D01*
X180958064Y-86530289D01*
X180958066Y-86530292D01*
X180958067Y-86530293D01*
X181105733Y-86722736D01*
X181105739Y-86722743D01*
X181277256Y-86894260D01*
X181277262Y-86894265D01*
X181469711Y-87041936D01*
X181679788Y-87163224D01*
X181903900Y-87256054D01*
X182138211Y-87318838D01*
X182318586Y-87342584D01*
X182378711Y-87350500D01*
X182378712Y-87350500D01*
X182621289Y-87350500D01*
X182669388Y-87344167D01*
X182861789Y-87318838D01*
X183096100Y-87256054D01*
X183320212Y-87163224D01*
X183530289Y-87041936D01*
X183722738Y-86894265D01*
X183894265Y-86722738D01*
X184041936Y-86530289D01*
X184163224Y-86320212D01*
X184256054Y-86096100D01*
X184318838Y-85861789D01*
X184350500Y-85621288D01*
X184350500Y-85378712D01*
X184318838Y-85138211D01*
X184256054Y-84903900D01*
X184163224Y-84679788D01*
X184041936Y-84469711D01*
X183894265Y-84277262D01*
X183894260Y-84277256D01*
X183722743Y-84105739D01*
X183722736Y-84105733D01*
X183530293Y-83958067D01*
X183530292Y-83958066D01*
X183530289Y-83958064D01*
X183320212Y-83836776D01*
X183280206Y-83820205D01*
X183096104Y-83743947D01*
X182861785Y-83681161D01*
X182621289Y-83649500D01*
X182621288Y-83649500D01*
X182378712Y-83649500D01*
X182378711Y-83649500D01*
X182138214Y-83681161D01*
X181903895Y-83743947D01*
X181679794Y-83836773D01*
X181679785Y-83836777D01*
X181469706Y-83958067D01*
X181277263Y-84105733D01*
X181277256Y-84105739D01*
X181105739Y-84277256D01*
X181105733Y-84277263D01*
X180958067Y-84469706D01*
X180836777Y-84679785D01*
X180836773Y-84679794D01*
X180743947Y-84903895D01*
X180681161Y-85138214D01*
X180649500Y-85378711D01*
X83000500Y-85378711D01*
X83000500Y-82878711D01*
X91149500Y-82878711D01*
X91149500Y-83121288D01*
X91181161Y-83361785D01*
X91243947Y-83596104D01*
X91305186Y-83743947D01*
X91336776Y-83820212D01*
X91458064Y-84030289D01*
X91458066Y-84030292D01*
X91458067Y-84030293D01*
X91605733Y-84222736D01*
X91605739Y-84222743D01*
X91777256Y-84394260D01*
X91777262Y-84394265D01*
X91969711Y-84541936D01*
X92179788Y-84663224D01*
X92403900Y-84756054D01*
X92638211Y-84818838D01*
X92818586Y-84842584D01*
X92878711Y-84850500D01*
X92878712Y-84850500D01*
X93121289Y-84850500D01*
X93169388Y-84844167D01*
X93361789Y-84818838D01*
X93596100Y-84756054D01*
X93820212Y-84663224D01*
X94030289Y-84541936D01*
X94222738Y-84394265D01*
X94394265Y-84222738D01*
X94541936Y-84030289D01*
X94663224Y-83820212D01*
X94756054Y-83596100D01*
X94818838Y-83361789D01*
X94850500Y-83121288D01*
X94850500Y-82878712D01*
X94818838Y-82638211D01*
X94756054Y-82403900D01*
X94663224Y-82179788D01*
X94541936Y-81969711D01*
X94394265Y-81777262D01*
X94394260Y-81777256D01*
X94222743Y-81605739D01*
X94222736Y-81605733D01*
X94030293Y-81458067D01*
X94030292Y-81458066D01*
X94030289Y-81458064D01*
X93820212Y-81336776D01*
X93820205Y-81336773D01*
X93596104Y-81243947D01*
X93361785Y-81181161D01*
X93121289Y-81149500D01*
X93121288Y-81149500D01*
X92878712Y-81149500D01*
X92878711Y-81149500D01*
X92638214Y-81181161D01*
X92403895Y-81243947D01*
X92179794Y-81336773D01*
X92179785Y-81336777D01*
X91969706Y-81458067D01*
X91777263Y-81605733D01*
X91777256Y-81605739D01*
X91605739Y-81777256D01*
X91605733Y-81777263D01*
X91458067Y-81969706D01*
X91336777Y-82179785D01*
X91336773Y-82179794D01*
X91243947Y-82403895D01*
X91181161Y-82638214D01*
X91149500Y-82878711D01*
X83000500Y-82878711D01*
X83000500Y-68913389D01*
X95819500Y-68913389D01*
X95819500Y-69086611D01*
X95846598Y-69257701D01*
X95900127Y-69422445D01*
X95978768Y-69576788D01*
X96080586Y-69716928D01*
X96203072Y-69839414D01*
X96343212Y-69941232D01*
X96497555Y-70019873D01*
X96662299Y-70073402D01*
X96833389Y-70100500D01*
X96833390Y-70100500D01*
X97006610Y-70100500D01*
X97006611Y-70100500D01*
X97177701Y-70073402D01*
X97342445Y-70019873D01*
X97496788Y-69941232D01*
X97636928Y-69839414D01*
X97759414Y-69716928D01*
X97861232Y-69576788D01*
X97939873Y-69422445D01*
X97993402Y-69257701D01*
X98020500Y-69086611D01*
X98020500Y-68913389D01*
X98010854Y-68852486D01*
X99749500Y-68852486D01*
X99749500Y-69147513D01*
X99781571Y-69391113D01*
X99788007Y-69439993D01*
X99863024Y-69719961D01*
X99864361Y-69724951D01*
X99864364Y-69724961D01*
X99977254Y-69997500D01*
X99977258Y-69997510D01*
X100124761Y-70252993D01*
X100304352Y-70487040D01*
X100304358Y-70487047D01*
X100512952Y-70695641D01*
X100512959Y-70695647D01*
X100747006Y-70875238D01*
X101002489Y-71022741D01*
X101002490Y-71022741D01*
X101002493Y-71022743D01*
X101213296Y-71110060D01*
X101262974Y-71130638D01*
X101275048Y-71135639D01*
X101560007Y-71211993D01*
X101852494Y-71250500D01*
X101852501Y-71250500D01*
X102147499Y-71250500D01*
X102147506Y-71250500D01*
X102439993Y-71211993D01*
X102724952Y-71135639D01*
X102997507Y-71022743D01*
X103252994Y-70875238D01*
X103487042Y-70695646D01*
X103695646Y-70487042D01*
X103875238Y-70252994D01*
X104022743Y-69997507D01*
X104135639Y-69724952D01*
X104211993Y-69439993D01*
X104250500Y-69147506D01*
X104250500Y-68913389D01*
X105979500Y-68913389D01*
X105979500Y-69086611D01*
X106006598Y-69257701D01*
X106060127Y-69422445D01*
X106138768Y-69576788D01*
X106240586Y-69716928D01*
X106363072Y-69839414D01*
X106503212Y-69941232D01*
X106657555Y-70019873D01*
X106822299Y-70073402D01*
X106993389Y-70100500D01*
X106993390Y-70100500D01*
X107166610Y-70100500D01*
X107166611Y-70100500D01*
X107337701Y-70073402D01*
X107502445Y-70019873D01*
X107656788Y-69941232D01*
X107796928Y-69839414D01*
X107919414Y-69716928D01*
X108021232Y-69576788D01*
X108099873Y-69422445D01*
X108153402Y-69257701D01*
X108180500Y-69086611D01*
X108180500Y-68913389D01*
X108179708Y-68908389D01*
X119834500Y-68908389D01*
X119834500Y-69081611D01*
X119861598Y-69252701D01*
X119915127Y-69417445D01*
X119993768Y-69571788D01*
X120095586Y-69711928D01*
X120218072Y-69834414D01*
X120358212Y-69936232D01*
X120512555Y-70014873D01*
X120677299Y-70068402D01*
X120848389Y-70095500D01*
X120848390Y-70095500D01*
X121021610Y-70095500D01*
X121021611Y-70095500D01*
X121192701Y-70068402D01*
X121357445Y-70014873D01*
X121511788Y-69936232D01*
X121651928Y-69834414D01*
X121774414Y-69711928D01*
X121876232Y-69571788D01*
X121954873Y-69417445D01*
X122008402Y-69252701D01*
X122035500Y-69081611D01*
X122035500Y-68908389D01*
X122025854Y-68847486D01*
X123764500Y-68847486D01*
X123764500Y-69142513D01*
X123796571Y-69386113D01*
X123803007Y-69434993D01*
X123879361Y-69719951D01*
X123879364Y-69719961D01*
X123992254Y-69992500D01*
X123992258Y-69992510D01*
X124139761Y-70247993D01*
X124319352Y-70482040D01*
X124319358Y-70482047D01*
X124527952Y-70690641D01*
X124527959Y-70690647D01*
X124762006Y-70870238D01*
X125017489Y-71017741D01*
X125017490Y-71017741D01*
X125017493Y-71017743D01*
X125290048Y-71130639D01*
X125575007Y-71206993D01*
X125867494Y-71245500D01*
X125867501Y-71245500D01*
X126162499Y-71245500D01*
X126162506Y-71245500D01*
X126454993Y-71206993D01*
X126739952Y-71130639D01*
X127012507Y-71017743D01*
X127267994Y-70870238D01*
X127502042Y-70690646D01*
X127710646Y-70482042D01*
X127890238Y-70247994D01*
X128037743Y-69992507D01*
X128150639Y-69719952D01*
X128226993Y-69434993D01*
X128265500Y-69142506D01*
X128265500Y-68908389D01*
X129994500Y-68908389D01*
X129994500Y-69081611D01*
X130021598Y-69252701D01*
X130075127Y-69417445D01*
X130153768Y-69571788D01*
X130255586Y-69711928D01*
X130378072Y-69834414D01*
X130518212Y-69936232D01*
X130672555Y-70014873D01*
X130837299Y-70068402D01*
X131008389Y-70095500D01*
X131008390Y-70095500D01*
X131181610Y-70095500D01*
X131181611Y-70095500D01*
X131352701Y-70068402D01*
X131517445Y-70014873D01*
X131671788Y-69936232D01*
X131811928Y-69834414D01*
X131934414Y-69711928D01*
X132036232Y-69571788D01*
X132114873Y-69417445D01*
X132168402Y-69252701D01*
X132195500Y-69081611D01*
X132195500Y-68908389D01*
X144819500Y-68908389D01*
X144819500Y-69081611D01*
X144846598Y-69252701D01*
X144900127Y-69417445D01*
X144978768Y-69571788D01*
X145080586Y-69711928D01*
X145203072Y-69834414D01*
X145343212Y-69936232D01*
X145497555Y-70014873D01*
X145662299Y-70068402D01*
X145833389Y-70095500D01*
X145833390Y-70095500D01*
X146006610Y-70095500D01*
X146006611Y-70095500D01*
X146177701Y-70068402D01*
X146342445Y-70014873D01*
X146496788Y-69936232D01*
X146636928Y-69834414D01*
X146759414Y-69711928D01*
X146861232Y-69571788D01*
X146939873Y-69417445D01*
X146993402Y-69252701D01*
X147020500Y-69081611D01*
X147020500Y-68908389D01*
X147010854Y-68847486D01*
X148749500Y-68847486D01*
X148749500Y-69142513D01*
X148781571Y-69386113D01*
X148788007Y-69434993D01*
X148864361Y-69719951D01*
X148864364Y-69719961D01*
X148977254Y-69992500D01*
X148977258Y-69992510D01*
X149124761Y-70247993D01*
X149304352Y-70482040D01*
X149304358Y-70482047D01*
X149512952Y-70690641D01*
X149512959Y-70690647D01*
X149747006Y-70870238D01*
X150002489Y-71017741D01*
X150002490Y-71017741D01*
X150002493Y-71017743D01*
X150275048Y-71130639D01*
X150560007Y-71206993D01*
X150852494Y-71245500D01*
X150852501Y-71245500D01*
X151147499Y-71245500D01*
X151147506Y-71245500D01*
X151439993Y-71206993D01*
X151724952Y-71130639D01*
X151997507Y-71017743D01*
X152252994Y-70870238D01*
X152487042Y-70690646D01*
X152695646Y-70482042D01*
X152875238Y-70247994D01*
X153022743Y-69992507D01*
X153135639Y-69719952D01*
X153211993Y-69434993D01*
X153250500Y-69142506D01*
X153250500Y-68908389D01*
X154979500Y-68908389D01*
X154979500Y-69081611D01*
X155006598Y-69252701D01*
X155060127Y-69417445D01*
X155138768Y-69571788D01*
X155240586Y-69711928D01*
X155363072Y-69834414D01*
X155503212Y-69936232D01*
X155657555Y-70014873D01*
X155822299Y-70068402D01*
X155993389Y-70095500D01*
X155993390Y-70095500D01*
X156166610Y-70095500D01*
X156166611Y-70095500D01*
X156337701Y-70068402D01*
X156502445Y-70014873D01*
X156656788Y-69936232D01*
X156796928Y-69834414D01*
X156919414Y-69711928D01*
X157021232Y-69571788D01*
X157099873Y-69417445D01*
X157153402Y-69252701D01*
X157180500Y-69081611D01*
X157180500Y-68913389D01*
X169739500Y-68913389D01*
X169739500Y-69086611D01*
X169766598Y-69257701D01*
X169820127Y-69422445D01*
X169898768Y-69576788D01*
X170000586Y-69716928D01*
X170123072Y-69839414D01*
X170263212Y-69941232D01*
X170417555Y-70019873D01*
X170582299Y-70073402D01*
X170753389Y-70100500D01*
X170753390Y-70100500D01*
X170926610Y-70100500D01*
X170926611Y-70100500D01*
X171097701Y-70073402D01*
X171262445Y-70019873D01*
X171416788Y-69941232D01*
X171556928Y-69839414D01*
X171679414Y-69716928D01*
X171781232Y-69576788D01*
X171859873Y-69422445D01*
X171913402Y-69257701D01*
X171940500Y-69086611D01*
X171940500Y-68913389D01*
X171930854Y-68852486D01*
X173669500Y-68852486D01*
X173669500Y-69147513D01*
X173701571Y-69391113D01*
X173708007Y-69439993D01*
X173783024Y-69719961D01*
X173784361Y-69724951D01*
X173784364Y-69724961D01*
X173897254Y-69997500D01*
X173897258Y-69997510D01*
X174044761Y-70252993D01*
X174224352Y-70487040D01*
X174224358Y-70487047D01*
X174432952Y-70695641D01*
X174432959Y-70695647D01*
X174667006Y-70875238D01*
X174922489Y-71022741D01*
X174922490Y-71022741D01*
X174922493Y-71022743D01*
X175133296Y-71110060D01*
X175182974Y-71130638D01*
X175195048Y-71135639D01*
X175480007Y-71211993D01*
X175772494Y-71250500D01*
X175772501Y-71250500D01*
X176067499Y-71250500D01*
X176067506Y-71250500D01*
X176359993Y-71211993D01*
X176644952Y-71135639D01*
X176917507Y-71022743D01*
X177172994Y-70875238D01*
X177407042Y-70695646D01*
X177615646Y-70487042D01*
X177795238Y-70252994D01*
X177942743Y-69997507D01*
X178055639Y-69724952D01*
X178131993Y-69439993D01*
X178170500Y-69147506D01*
X178170500Y-68913389D01*
X179899500Y-68913389D01*
X179899500Y-69086611D01*
X179926598Y-69257701D01*
X179980127Y-69422445D01*
X180058768Y-69576788D01*
X180160586Y-69716928D01*
X180283072Y-69839414D01*
X180423212Y-69941232D01*
X180577555Y-70019873D01*
X180742299Y-70073402D01*
X180913389Y-70100500D01*
X180913390Y-70100500D01*
X181086610Y-70100500D01*
X181086611Y-70100500D01*
X181257701Y-70073402D01*
X181422445Y-70019873D01*
X181576788Y-69941232D01*
X181716928Y-69839414D01*
X181839414Y-69716928D01*
X181941232Y-69576788D01*
X182019873Y-69422445D01*
X182073402Y-69257701D01*
X182100500Y-69086611D01*
X182100500Y-68913389D01*
X182073402Y-68742299D01*
X182019873Y-68577555D01*
X181941232Y-68423212D01*
X181839414Y-68283072D01*
X181716928Y-68160586D01*
X181576788Y-68058768D01*
X181422445Y-67980127D01*
X181257701Y-67926598D01*
X181257699Y-67926597D01*
X181257698Y-67926597D01*
X181126271Y-67905781D01*
X181086611Y-67899500D01*
X180913389Y-67899500D01*
X180873728Y-67905781D01*
X180742302Y-67926597D01*
X180577552Y-67980128D01*
X180423211Y-68058768D01*
X180373171Y-68095125D01*
X180283072Y-68160586D01*
X180283070Y-68160588D01*
X180283069Y-68160588D01*
X180160588Y-68283069D01*
X180160588Y-68283070D01*
X180160586Y-68283072D01*
X180116859Y-68343256D01*
X180058768Y-68423211D01*
X179980128Y-68577552D01*
X179926597Y-68742302D01*
X179900292Y-68908389D01*
X179899500Y-68913389D01*
X178170500Y-68913389D01*
X178170500Y-68852494D01*
X178131993Y-68560007D01*
X178055639Y-68275048D01*
X177942743Y-68002493D01*
X177939856Y-67997493D01*
X177795238Y-67747006D01*
X177615647Y-67512959D01*
X177615641Y-67512952D01*
X177407047Y-67304358D01*
X177407040Y-67304352D01*
X177172993Y-67124761D01*
X176917510Y-66977258D01*
X176917500Y-66977254D01*
X176644961Y-66864364D01*
X176644954Y-66864362D01*
X176644952Y-66864361D01*
X176359993Y-66788007D01*
X176311113Y-66781571D01*
X176067513Y-66749500D01*
X176067506Y-66749500D01*
X175772494Y-66749500D01*
X175772486Y-66749500D01*
X175494085Y-66786153D01*
X175480007Y-66788007D01*
X175305428Y-66834785D01*
X175195048Y-66864361D01*
X175195038Y-66864364D01*
X174922499Y-66977254D01*
X174922489Y-66977258D01*
X174667006Y-67124761D01*
X174432959Y-67304352D01*
X174432952Y-67304358D01*
X174224358Y-67512952D01*
X174224352Y-67512959D01*
X174044761Y-67747006D01*
X173897258Y-68002489D01*
X173897254Y-68002499D01*
X173784364Y-68275038D01*
X173784361Y-68275048D01*
X173708008Y-68560004D01*
X173708006Y-68560015D01*
X173669500Y-68852486D01*
X171930854Y-68852486D01*
X171913402Y-68742299D01*
X171859873Y-68577555D01*
X171781232Y-68423212D01*
X171679414Y-68283072D01*
X171627482Y-68231140D01*
X171593997Y-68169817D01*
X171598981Y-68100125D01*
X171640853Y-68044192D01*
X171706317Y-68019775D01*
X171734561Y-68020986D01*
X171735212Y-68021089D01*
X171735215Y-68021090D01*
X171984038Y-68060500D01*
X171984039Y-68060500D01*
X172235961Y-68060500D01*
X172235962Y-68060500D01*
X172484785Y-68021090D01*
X172724379Y-67943241D01*
X172948845Y-67828870D01*
X173152656Y-67680793D01*
X173330793Y-67502656D01*
X173478870Y-67298845D01*
X173593241Y-67074379D01*
X173671090Y-66834785D01*
X173710500Y-66585962D01*
X173710500Y-66334038D01*
X173671090Y-66085215D01*
X173593241Y-65845621D01*
X173593239Y-65845618D01*
X173593239Y-65845616D01*
X173551747Y-65764184D01*
X173478870Y-65621155D01*
X173459952Y-65595117D01*
X173330798Y-65417350D01*
X173330794Y-65417345D01*
X173152654Y-65239205D01*
X173152649Y-65239201D01*
X172948848Y-65091132D01*
X172948847Y-65091131D01*
X172948845Y-65091130D01*
X172878747Y-65055413D01*
X172724383Y-64976760D01*
X172484785Y-64898910D01*
X172453216Y-64893910D01*
X172235962Y-64859500D01*
X171984038Y-64859500D01*
X171859626Y-64879205D01*
X171735214Y-64898910D01*
X171495616Y-64976760D01*
X171271151Y-65091132D01*
X171067350Y-65239201D01*
X171067345Y-65239205D01*
X170889205Y-65417345D01*
X170889201Y-65417350D01*
X170741132Y-65621151D01*
X170626760Y-65845616D01*
X170548910Y-66085214D01*
X170509500Y-66334038D01*
X170509500Y-66585961D01*
X170548910Y-66834785D01*
X170626760Y-67074383D01*
X170652430Y-67124762D01*
X170738582Y-67293845D01*
X170741132Y-67298848D01*
X170889201Y-67502649D01*
X170889205Y-67502654D01*
X170889207Y-67502656D01*
X171067344Y-67680793D01*
X171067345Y-67680794D01*
X171067344Y-67680794D01*
X171073661Y-67685383D01*
X171116327Y-67740714D01*
X171122305Y-67810327D01*
X171089699Y-67872122D01*
X171028860Y-67906479D01*
X170981378Y-67908174D01*
X170926611Y-67899500D01*
X170753389Y-67899500D01*
X170713728Y-67905781D01*
X170582302Y-67926597D01*
X170417552Y-67980128D01*
X170263211Y-68058768D01*
X170213171Y-68095125D01*
X170123072Y-68160586D01*
X170123070Y-68160588D01*
X170123069Y-68160588D01*
X170000588Y-68283069D01*
X170000588Y-68283070D01*
X170000586Y-68283072D01*
X169956859Y-68343256D01*
X169898768Y-68423211D01*
X169820128Y-68577552D01*
X169766597Y-68742302D01*
X169740292Y-68908389D01*
X169739500Y-68913389D01*
X157180500Y-68913389D01*
X157180500Y-68908389D01*
X157153402Y-68737299D01*
X157099873Y-68572555D01*
X157021232Y-68418212D01*
X156919414Y-68278072D01*
X156796928Y-68155586D01*
X156656788Y-68053768D01*
X156502445Y-67975127D01*
X156337701Y-67921598D01*
X156337699Y-67921597D01*
X156337698Y-67921597D01*
X156198180Y-67899500D01*
X156166611Y-67894500D01*
X155993389Y-67894500D01*
X155961820Y-67899500D01*
X155822302Y-67921597D01*
X155657552Y-67975128D01*
X155503211Y-68053768D01*
X155446289Y-68095125D01*
X155363072Y-68155586D01*
X155363070Y-68155588D01*
X155363069Y-68155588D01*
X155240588Y-68278069D01*
X155240588Y-68278070D01*
X155240586Y-68278072D01*
X155196859Y-68338256D01*
X155138768Y-68418211D01*
X155060128Y-68572552D01*
X155006597Y-68737302D01*
X154979500Y-68908389D01*
X153250500Y-68908389D01*
X153250500Y-68847494D01*
X153211993Y-68555007D01*
X153135639Y-68270048D01*
X153022743Y-67997493D01*
X153012717Y-67980128D01*
X152875238Y-67742006D01*
X152695647Y-67507959D01*
X152695641Y-67507952D01*
X152487047Y-67299358D01*
X152487040Y-67299352D01*
X152252993Y-67119761D01*
X151997510Y-66972258D01*
X151997500Y-66972254D01*
X151724961Y-66859364D01*
X151724954Y-66859362D01*
X151724952Y-66859361D01*
X151439993Y-66783007D01*
X151391113Y-66776571D01*
X151147513Y-66744500D01*
X151147506Y-66744500D01*
X150852494Y-66744500D01*
X150852486Y-66744500D01*
X150574085Y-66781153D01*
X150560007Y-66783007D01*
X150385428Y-66829785D01*
X150275048Y-66859361D01*
X150275038Y-66859364D01*
X150002499Y-66972254D01*
X150002489Y-66972258D01*
X149747006Y-67119761D01*
X149512959Y-67299352D01*
X149512952Y-67299358D01*
X149304358Y-67507952D01*
X149304352Y-67507959D01*
X149124761Y-67742006D01*
X148977258Y-67997489D01*
X148977254Y-67997499D01*
X148864364Y-68270038D01*
X148864361Y-68270048D01*
X148788008Y-68555004D01*
X148788006Y-68555015D01*
X148749500Y-68847486D01*
X147010854Y-68847486D01*
X146993402Y-68737299D01*
X146939873Y-68572555D01*
X146861232Y-68418212D01*
X146759414Y-68278072D01*
X146707482Y-68226140D01*
X146673997Y-68164817D01*
X146678981Y-68095125D01*
X146720853Y-68039192D01*
X146786317Y-68014775D01*
X146814561Y-68015986D01*
X146815212Y-68016089D01*
X146815215Y-68016090D01*
X147064038Y-68055500D01*
X147064039Y-68055500D01*
X147315961Y-68055500D01*
X147315962Y-68055500D01*
X147564785Y-68016090D01*
X147804379Y-67938241D01*
X148028845Y-67823870D01*
X148232656Y-67675793D01*
X148410793Y-67497656D01*
X148558870Y-67293845D01*
X148673241Y-67069379D01*
X148751090Y-66829785D01*
X148790500Y-66580962D01*
X148790500Y-66329038D01*
X148751090Y-66080215D01*
X148673241Y-65840621D01*
X148673239Y-65840618D01*
X148673239Y-65840616D01*
X148631747Y-65759184D01*
X148558870Y-65616155D01*
X148539952Y-65590117D01*
X148410798Y-65412350D01*
X148410794Y-65412345D01*
X148232654Y-65234205D01*
X148232649Y-65234201D01*
X148028848Y-65086132D01*
X148028847Y-65086131D01*
X148028845Y-65086130D01*
X147958747Y-65050413D01*
X147804383Y-64971760D01*
X147564785Y-64893910D01*
X147315962Y-64854500D01*
X147064038Y-64854500D01*
X146939626Y-64874205D01*
X146815214Y-64893910D01*
X146575616Y-64971760D01*
X146351151Y-65086132D01*
X146147350Y-65234201D01*
X146147345Y-65234205D01*
X145969205Y-65412345D01*
X145969201Y-65412350D01*
X145821132Y-65616151D01*
X145706760Y-65840616D01*
X145628910Y-66080214D01*
X145589500Y-66329038D01*
X145589500Y-66580961D01*
X145628910Y-66829785D01*
X145706760Y-67069383D01*
X145821132Y-67293848D01*
X145969201Y-67497649D01*
X145969205Y-67497654D01*
X145969207Y-67497656D01*
X146147344Y-67675793D01*
X146147345Y-67675794D01*
X146147344Y-67675794D01*
X146153661Y-67680383D01*
X146196327Y-67735714D01*
X146202305Y-67805327D01*
X146169699Y-67867122D01*
X146108860Y-67901479D01*
X146061378Y-67903174D01*
X146006611Y-67894500D01*
X145833389Y-67894500D01*
X145801820Y-67899500D01*
X145662302Y-67921597D01*
X145497552Y-67975128D01*
X145343211Y-68053768D01*
X145286289Y-68095125D01*
X145203072Y-68155586D01*
X145203070Y-68155588D01*
X145203069Y-68155588D01*
X145080588Y-68278069D01*
X145080588Y-68278070D01*
X145080586Y-68278072D01*
X145036859Y-68338256D01*
X144978768Y-68418211D01*
X144900128Y-68572552D01*
X144846597Y-68737302D01*
X144819500Y-68908389D01*
X132195500Y-68908389D01*
X132168402Y-68737299D01*
X132114873Y-68572555D01*
X132036232Y-68418212D01*
X131934414Y-68278072D01*
X131811928Y-68155586D01*
X131671788Y-68053768D01*
X131517445Y-67975127D01*
X131352701Y-67921598D01*
X131352699Y-67921597D01*
X131352698Y-67921597D01*
X131213180Y-67899500D01*
X131181611Y-67894500D01*
X131008389Y-67894500D01*
X130976820Y-67899500D01*
X130837302Y-67921597D01*
X130672552Y-67975128D01*
X130518211Y-68053768D01*
X130461289Y-68095125D01*
X130378072Y-68155586D01*
X130378070Y-68155588D01*
X130378069Y-68155588D01*
X130255588Y-68278069D01*
X130255588Y-68278070D01*
X130255586Y-68278072D01*
X130211859Y-68338256D01*
X130153768Y-68418211D01*
X130075128Y-68572552D01*
X130021597Y-68737302D01*
X129994500Y-68908389D01*
X128265500Y-68908389D01*
X128265500Y-68847494D01*
X128226993Y-68555007D01*
X128150639Y-68270048D01*
X128037743Y-67997493D01*
X128027717Y-67980128D01*
X127890238Y-67742006D01*
X127710647Y-67507959D01*
X127710641Y-67507952D01*
X127502047Y-67299358D01*
X127502040Y-67299352D01*
X127267993Y-67119761D01*
X127012510Y-66972258D01*
X127012500Y-66972254D01*
X126739961Y-66859364D01*
X126739954Y-66859362D01*
X126739952Y-66859361D01*
X126454993Y-66783007D01*
X126406113Y-66776571D01*
X126162513Y-66744500D01*
X126162506Y-66744500D01*
X125867494Y-66744500D01*
X125867486Y-66744500D01*
X125589085Y-66781153D01*
X125575007Y-66783007D01*
X125400428Y-66829785D01*
X125290048Y-66859361D01*
X125290038Y-66859364D01*
X125017499Y-66972254D01*
X125017489Y-66972258D01*
X124762006Y-67119761D01*
X124527959Y-67299352D01*
X124527952Y-67299358D01*
X124319358Y-67507952D01*
X124319352Y-67507959D01*
X124139761Y-67742006D01*
X123992258Y-67997489D01*
X123992254Y-67997499D01*
X123879364Y-68270038D01*
X123879361Y-68270048D01*
X123803008Y-68555004D01*
X123803006Y-68555015D01*
X123764500Y-68847486D01*
X122025854Y-68847486D01*
X122008402Y-68737299D01*
X121954873Y-68572555D01*
X121876232Y-68418212D01*
X121774414Y-68278072D01*
X121722482Y-68226140D01*
X121688997Y-68164817D01*
X121693981Y-68095125D01*
X121735853Y-68039192D01*
X121801317Y-68014775D01*
X121829561Y-68015986D01*
X121830212Y-68016089D01*
X121830215Y-68016090D01*
X122079038Y-68055500D01*
X122079039Y-68055500D01*
X122330961Y-68055500D01*
X122330962Y-68055500D01*
X122579785Y-68016090D01*
X122819379Y-67938241D01*
X123043845Y-67823870D01*
X123247656Y-67675793D01*
X123425793Y-67497656D01*
X123573870Y-67293845D01*
X123688241Y-67069379D01*
X123766090Y-66829785D01*
X123805500Y-66580962D01*
X123805500Y-66329038D01*
X123766090Y-66080215D01*
X123688241Y-65840621D01*
X123688239Y-65840618D01*
X123688239Y-65840616D01*
X123646747Y-65759184D01*
X123573870Y-65616155D01*
X123554952Y-65590117D01*
X123425798Y-65412350D01*
X123425794Y-65412345D01*
X123247654Y-65234205D01*
X123247649Y-65234201D01*
X123043848Y-65086132D01*
X123043847Y-65086131D01*
X123043845Y-65086130D01*
X122973747Y-65050413D01*
X122819383Y-64971760D01*
X122579785Y-64893910D01*
X122330962Y-64854500D01*
X122079038Y-64854500D01*
X121954626Y-64874205D01*
X121830214Y-64893910D01*
X121590616Y-64971760D01*
X121366151Y-65086132D01*
X121162350Y-65234201D01*
X121162345Y-65234205D01*
X120984205Y-65412345D01*
X120984201Y-65412350D01*
X120836132Y-65616151D01*
X120721760Y-65840616D01*
X120643910Y-66080214D01*
X120604500Y-66329038D01*
X120604500Y-66580961D01*
X120643910Y-66829785D01*
X120721760Y-67069383D01*
X120836132Y-67293848D01*
X120984201Y-67497649D01*
X120984205Y-67497654D01*
X120984207Y-67497656D01*
X121162344Y-67675793D01*
X121162345Y-67675794D01*
X121162344Y-67675794D01*
X121168661Y-67680383D01*
X121211327Y-67735714D01*
X121217305Y-67805327D01*
X121184699Y-67867122D01*
X121123860Y-67901479D01*
X121076378Y-67903174D01*
X121021611Y-67894500D01*
X120848389Y-67894500D01*
X120816820Y-67899500D01*
X120677302Y-67921597D01*
X120512552Y-67975128D01*
X120358211Y-68053768D01*
X120301289Y-68095125D01*
X120218072Y-68155586D01*
X120218070Y-68155588D01*
X120218069Y-68155588D01*
X120095588Y-68278069D01*
X120095588Y-68278070D01*
X120095586Y-68278072D01*
X120051859Y-68338256D01*
X119993768Y-68418211D01*
X119915128Y-68572552D01*
X119861597Y-68737302D01*
X119834500Y-68908389D01*
X108179708Y-68908389D01*
X108153402Y-68742299D01*
X108099873Y-68577555D01*
X108021232Y-68423212D01*
X107919414Y-68283072D01*
X107796928Y-68160586D01*
X107656788Y-68058768D01*
X107502445Y-67980127D01*
X107337701Y-67926598D01*
X107337699Y-67926597D01*
X107337698Y-67926597D01*
X107206271Y-67905781D01*
X107166611Y-67899500D01*
X106993389Y-67899500D01*
X106953728Y-67905781D01*
X106822302Y-67926597D01*
X106657552Y-67980128D01*
X106503211Y-68058768D01*
X106453171Y-68095125D01*
X106363072Y-68160586D01*
X106363070Y-68160588D01*
X106363069Y-68160588D01*
X106240588Y-68283069D01*
X106240588Y-68283070D01*
X106240586Y-68283072D01*
X106196859Y-68343256D01*
X106138768Y-68423211D01*
X106060128Y-68577552D01*
X106006597Y-68742302D01*
X105980292Y-68908389D01*
X105979500Y-68913389D01*
X104250500Y-68913389D01*
X104250500Y-68852494D01*
X104211993Y-68560007D01*
X104135639Y-68275048D01*
X104022743Y-68002493D01*
X104019856Y-67997493D01*
X103875238Y-67747006D01*
X103695647Y-67512959D01*
X103695641Y-67512952D01*
X103487047Y-67304358D01*
X103487040Y-67304352D01*
X103252993Y-67124761D01*
X102997510Y-66977258D01*
X102997500Y-66977254D01*
X102724961Y-66864364D01*
X102724954Y-66864362D01*
X102724952Y-66864361D01*
X102439993Y-66788007D01*
X102391113Y-66781571D01*
X102147513Y-66749500D01*
X102147506Y-66749500D01*
X101852494Y-66749500D01*
X101852486Y-66749500D01*
X101574085Y-66786153D01*
X101560007Y-66788007D01*
X101385428Y-66834785D01*
X101275048Y-66864361D01*
X101275038Y-66864364D01*
X101002499Y-66977254D01*
X101002489Y-66977258D01*
X100747006Y-67124761D01*
X100512959Y-67304352D01*
X100512952Y-67304358D01*
X100304358Y-67512952D01*
X100304352Y-67512959D01*
X100124761Y-67747006D01*
X99977258Y-68002489D01*
X99977254Y-68002499D01*
X99864364Y-68275038D01*
X99864361Y-68275048D01*
X99788008Y-68560004D01*
X99788006Y-68560015D01*
X99749500Y-68852486D01*
X98010854Y-68852486D01*
X97993402Y-68742299D01*
X97939873Y-68577555D01*
X97861232Y-68423212D01*
X97759414Y-68283072D01*
X97707482Y-68231140D01*
X97673997Y-68169817D01*
X97678981Y-68100125D01*
X97720853Y-68044192D01*
X97786317Y-68019775D01*
X97814561Y-68020986D01*
X97815212Y-68021089D01*
X97815215Y-68021090D01*
X98064038Y-68060500D01*
X98064039Y-68060500D01*
X98315961Y-68060500D01*
X98315962Y-68060500D01*
X98564785Y-68021090D01*
X98804379Y-67943241D01*
X99028845Y-67828870D01*
X99232656Y-67680793D01*
X99410793Y-67502656D01*
X99558870Y-67298845D01*
X99673241Y-67074379D01*
X99751090Y-66834785D01*
X99790500Y-66585962D01*
X99790500Y-66334038D01*
X99751090Y-66085215D01*
X99673241Y-65845621D01*
X99673239Y-65845618D01*
X99673239Y-65845616D01*
X99631747Y-65764184D01*
X99558870Y-65621155D01*
X99539952Y-65595117D01*
X99410798Y-65417350D01*
X99410794Y-65417345D01*
X99232654Y-65239205D01*
X99232649Y-65239201D01*
X99028848Y-65091132D01*
X99028847Y-65091131D01*
X99028845Y-65091130D01*
X98958747Y-65055413D01*
X98804383Y-64976760D01*
X98564785Y-64898910D01*
X98533216Y-64893910D01*
X98315962Y-64859500D01*
X98064038Y-64859500D01*
X97939626Y-64879205D01*
X97815214Y-64898910D01*
X97575616Y-64976760D01*
X97351151Y-65091132D01*
X97147350Y-65239201D01*
X97147345Y-65239205D01*
X96969205Y-65417345D01*
X96969201Y-65417350D01*
X96821132Y-65621151D01*
X96706760Y-65845616D01*
X96628910Y-66085214D01*
X96589500Y-66334038D01*
X96589500Y-66585961D01*
X96628910Y-66834785D01*
X96706760Y-67074383D01*
X96732430Y-67124762D01*
X96818582Y-67293845D01*
X96821132Y-67298848D01*
X96969201Y-67502649D01*
X96969205Y-67502654D01*
X96969207Y-67502656D01*
X97147344Y-67680793D01*
X97147345Y-67680794D01*
X97147344Y-67680794D01*
X97153661Y-67685383D01*
X97196327Y-67740714D01*
X97202305Y-67810327D01*
X97169699Y-67872122D01*
X97108860Y-67906479D01*
X97061378Y-67908174D01*
X97006611Y-67899500D01*
X96833389Y-67899500D01*
X96793728Y-67905781D01*
X96662302Y-67926597D01*
X96497552Y-67980128D01*
X96343211Y-68058768D01*
X96293171Y-68095125D01*
X96203072Y-68160586D01*
X96203070Y-68160588D01*
X96203069Y-68160588D01*
X96080588Y-68283069D01*
X96080588Y-68283070D01*
X96080586Y-68283072D01*
X96036859Y-68343256D01*
X95978768Y-68423211D01*
X95900128Y-68577552D01*
X95846597Y-68742302D01*
X95820292Y-68908389D01*
X95819500Y-68913389D01*
X83000500Y-68913389D01*
X83000500Y-45893713D01*
X110409500Y-45893713D01*
X110409500Y-46106287D01*
X110442754Y-46316243D01*
X110505803Y-46510288D01*
X110508444Y-46518414D01*
X110604951Y-46707820D01*
X110729890Y-46879786D01*
X110880213Y-47030109D01*
X111052179Y-47155048D01*
X111052181Y-47155049D01*
X111052184Y-47155051D01*
X111241588Y-47251557D01*
X111443757Y-47317246D01*
X111653713Y-47350500D01*
X111653714Y-47350500D01*
X111866286Y-47350500D01*
X111866287Y-47350500D01*
X112076243Y-47317246D01*
X112278412Y-47251557D01*
X112467816Y-47155051D01*
X112514477Y-47121150D01*
X112639786Y-47030109D01*
X112639788Y-47030106D01*
X112639792Y-47030104D01*
X112790104Y-46879792D01*
X112790106Y-46879788D01*
X112790109Y-46879786D01*
X112913902Y-46709397D01*
X112915051Y-46707816D01*
X112919514Y-46699054D01*
X112967488Y-46648259D01*
X113035308Y-46631463D01*
X113101444Y-46653999D01*
X113140486Y-46699056D01*
X113144951Y-46707820D01*
X113269890Y-46879786D01*
X113420213Y-47030109D01*
X113592179Y-47155048D01*
X113592181Y-47155049D01*
X113592184Y-47155051D01*
X113781588Y-47251557D01*
X113983757Y-47317246D01*
X114193713Y-47350500D01*
X114193714Y-47350500D01*
X114406286Y-47350500D01*
X114406287Y-47350500D01*
X114616243Y-47317246D01*
X114818412Y-47251557D01*
X115007816Y-47155051D01*
X115054477Y-47121150D01*
X115179786Y-47030109D01*
X115179788Y-47030106D01*
X115179792Y-47030104D01*
X115330104Y-46879792D01*
X115330106Y-46879788D01*
X115330109Y-46879786D01*
X115453902Y-46709397D01*
X115455051Y-46707816D01*
X115459514Y-46699054D01*
X115507488Y-46648259D01*
X115575308Y-46631463D01*
X115641444Y-46653999D01*
X115680486Y-46699056D01*
X115684951Y-46707820D01*
X115809890Y-46879786D01*
X115960213Y-47030109D01*
X116132179Y-47155048D01*
X116132181Y-47155049D01*
X116132184Y-47155051D01*
X116321588Y-47251557D01*
X116523757Y-47317246D01*
X116733713Y-47350500D01*
X116733714Y-47350500D01*
X116946286Y-47350500D01*
X116946287Y-47350500D01*
X117156243Y-47317246D01*
X117358412Y-47251557D01*
X117547816Y-47155051D01*
X117594477Y-47121150D01*
X117719786Y-47030109D01*
X117719788Y-47030106D01*
X117719792Y-47030104D01*
X117870104Y-46879792D01*
X117870106Y-46879788D01*
X117870109Y-46879786D01*
X117993902Y-46709397D01*
X117995051Y-46707816D01*
X117999514Y-46699054D01*
X118047488Y-46648259D01*
X118115308Y-46631463D01*
X118181444Y-46653999D01*
X118220486Y-46699056D01*
X118224951Y-46707820D01*
X118349890Y-46879786D01*
X118500213Y-47030109D01*
X118672179Y-47155048D01*
X118672181Y-47155049D01*
X118672184Y-47155051D01*
X118861588Y-47251557D01*
X119063757Y-47317246D01*
X119273713Y-47350500D01*
X119273714Y-47350500D01*
X119486286Y-47350500D01*
X119486287Y-47350500D01*
X119696243Y-47317246D01*
X119898412Y-47251557D01*
X120087816Y-47155051D01*
X120134477Y-47121150D01*
X120259786Y-47030109D01*
X120259788Y-47030106D01*
X120259792Y-47030104D01*
X120410104Y-46879792D01*
X120410106Y-46879788D01*
X120410109Y-46879786D01*
X120533902Y-46709397D01*
X120535051Y-46707816D01*
X120539514Y-46699054D01*
X120587488Y-46648259D01*
X120655308Y-46631463D01*
X120721444Y-46653999D01*
X120760486Y-46699056D01*
X120764951Y-46707820D01*
X120889890Y-46879786D01*
X121040213Y-47030109D01*
X121212179Y-47155048D01*
X121212181Y-47155049D01*
X121212184Y-47155051D01*
X121401588Y-47251557D01*
X121603757Y-47317246D01*
X121813713Y-47350500D01*
X121813714Y-47350500D01*
X122026286Y-47350500D01*
X122026287Y-47350500D01*
X122236243Y-47317246D01*
X122438412Y-47251557D01*
X122627816Y-47155051D01*
X122674477Y-47121150D01*
X122799786Y-47030109D01*
X122799788Y-47030106D01*
X122799792Y-47030104D01*
X122950104Y-46879792D01*
X122950106Y-46879788D01*
X122950109Y-46879786D01*
X123073902Y-46709397D01*
X123075051Y-46707816D01*
X123079514Y-46699054D01*
X123127488Y-46648259D01*
X123195308Y-46631463D01*
X123261444Y-46653999D01*
X123300486Y-46699056D01*
X123304951Y-46707820D01*
X123429890Y-46879786D01*
X123580213Y-47030109D01*
X123752179Y-47155048D01*
X123752181Y-47155049D01*
X123752184Y-47155051D01*
X123941588Y-47251557D01*
X124143757Y-47317246D01*
X124353713Y-47350500D01*
X124353714Y-47350500D01*
X124566286Y-47350500D01*
X124566287Y-47350500D01*
X124776243Y-47317246D01*
X124978412Y-47251557D01*
X125167816Y-47155051D01*
X125214477Y-47121150D01*
X125339786Y-47030109D01*
X125339788Y-47030106D01*
X125339792Y-47030104D01*
X125490104Y-46879792D01*
X125490106Y-46879788D01*
X125490109Y-46879786D01*
X125613902Y-46709397D01*
X125615051Y-46707816D01*
X125619514Y-46699054D01*
X125667488Y-46648259D01*
X125735308Y-46631463D01*
X125801444Y-46653999D01*
X125840486Y-46699056D01*
X125844951Y-46707820D01*
X125969890Y-46879786D01*
X126120213Y-47030109D01*
X126292179Y-47155048D01*
X126292181Y-47155049D01*
X126292184Y-47155051D01*
X126481588Y-47251557D01*
X126683757Y-47317246D01*
X126893713Y-47350500D01*
X126893714Y-47350500D01*
X127106286Y-47350500D01*
X127106287Y-47350500D01*
X127316243Y-47317246D01*
X127518412Y-47251557D01*
X127707816Y-47155051D01*
X127754477Y-47121150D01*
X138949500Y-47121150D01*
X138949500Y-47278843D01*
X138980261Y-47433486D01*
X138980264Y-47433498D01*
X139029575Y-47552546D01*
X139037044Y-47622015D01*
X139029575Y-47647450D01*
X138980264Y-47766498D01*
X138980261Y-47766510D01*
X138949500Y-47921153D01*
X138949500Y-48078846D01*
X138980261Y-48233489D01*
X138980264Y-48233501D01*
X139040602Y-48379172D01*
X139040609Y-48379185D01*
X139128210Y-48510288D01*
X139128213Y-48510292D01*
X139239710Y-48621789D01*
X139328575Y-48681166D01*
X139370821Y-48709394D01*
X139372945Y-48710274D01*
X139373885Y-48711031D01*
X139376192Y-48712264D01*
X139375958Y-48712701D01*
X139427349Y-48754107D01*
X139449421Y-48820399D01*
X139449500Y-48824837D01*
X139449500Y-48828846D01*
X139480261Y-48983489D01*
X139480264Y-48983501D01*
X139540602Y-49129172D01*
X139540609Y-49129185D01*
X139628210Y-49260288D01*
X139628213Y-49260292D01*
X139739707Y-49371786D01*
X139739711Y-49371789D01*
X139870814Y-49459390D01*
X139870827Y-49459397D01*
X140008683Y-49516498D01*
X140016503Y-49519737D01*
X140171153Y-49550499D01*
X140171156Y-49550500D01*
X140171158Y-49550500D01*
X140328844Y-49550500D01*
X140328845Y-49550499D01*
X140483497Y-49519737D01*
X140629179Y-49459394D01*
X140629185Y-49459390D01*
X140760875Y-49371398D01*
X140827553Y-49350520D01*
X140829766Y-49350500D01*
X153699903Y-49350500D01*
X153766942Y-49370185D01*
X153787584Y-49386819D01*
X156415425Y-52014660D01*
X156448910Y-52075983D01*
X156449361Y-52078149D01*
X156480261Y-52233491D01*
X156480264Y-52233501D01*
X156540602Y-52379172D01*
X156540609Y-52379185D01*
X156628210Y-52510288D01*
X156628213Y-52510292D01*
X156739707Y-52621786D01*
X156739711Y-52621789D01*
X156870814Y-52709390D01*
X156870827Y-52709397D01*
X157016498Y-52769735D01*
X157016503Y-52769737D01*
X157171153Y-52800499D01*
X157171156Y-52800500D01*
X157171158Y-52800500D01*
X157328844Y-52800500D01*
X157328845Y-52800499D01*
X157483497Y-52769737D01*
X157629179Y-52709394D01*
X157760289Y-52621789D01*
X157871789Y-52510289D01*
X157959394Y-52379179D01*
X158019737Y-52233497D01*
X158050500Y-52078842D01*
X158050500Y-51921158D01*
X158050500Y-51921155D01*
X158050499Y-51921153D01*
X158019738Y-51766510D01*
X158019737Y-51766503D01*
X158019735Y-51766498D01*
X157959397Y-51620827D01*
X157959390Y-51620814D01*
X157871789Y-51489711D01*
X157871786Y-51489707D01*
X157760292Y-51378213D01*
X157760288Y-51378210D01*
X157629185Y-51290609D01*
X157629172Y-51290602D01*
X157483501Y-51230264D01*
X157483491Y-51230261D01*
X157328149Y-51199361D01*
X157266238Y-51166976D01*
X157264660Y-51165425D01*
X156778678Y-50679443D01*
X156745193Y-50618120D01*
X156750177Y-50548428D01*
X156792049Y-50492495D01*
X156857513Y-50468078D01*
X156913810Y-50477200D01*
X157016503Y-50519737D01*
X157171153Y-50550499D01*
X157171156Y-50550500D01*
X157171158Y-50550500D01*
X157328844Y-50550500D01*
X157328845Y-50550499D01*
X157483497Y-50519737D01*
X157629179Y-50459394D01*
X157760289Y-50371789D01*
X157871789Y-50260289D01*
X157959394Y-50129179D01*
X158019737Y-49983497D01*
X158050500Y-49828842D01*
X158050500Y-49671158D01*
X158050500Y-49671155D01*
X158050499Y-49671153D01*
X158019738Y-49516510D01*
X158019737Y-49516503D01*
X157959939Y-49372136D01*
X157950500Y-49324684D01*
X157950500Y-47422416D01*
X157950500Y-47422414D01*
X157927166Y-47335331D01*
X157909577Y-47269686D01*
X157843392Y-47155051D01*
X157830520Y-47132755D01*
X157830519Y-47132754D01*
X157830518Y-47132752D01*
X157714397Y-47016631D01*
X157714374Y-47016610D01*
X157486119Y-46788355D01*
X157486117Y-46788352D01*
X157367246Y-46669481D01*
X157367245Y-46669480D01*
X157280433Y-46619360D01*
X157280433Y-46619359D01*
X157280429Y-46619358D01*
X157230314Y-46590423D01*
X157077586Y-46549499D01*
X156919472Y-46549499D01*
X156911876Y-46549499D01*
X156911860Y-46549500D01*
X140254939Y-46549500D01*
X140187900Y-46529815D01*
X140186047Y-46528601D01*
X140129187Y-46490607D01*
X140129172Y-46490599D01*
X139983501Y-46430261D01*
X139983489Y-46430258D01*
X139828845Y-46399497D01*
X139828842Y-46399497D01*
X139671158Y-46399497D01*
X139671155Y-46399497D01*
X139516510Y-46430258D01*
X139516498Y-46430261D01*
X139370827Y-46490599D01*
X139370814Y-46490606D01*
X139239711Y-46578207D01*
X139239707Y-46578210D01*
X139128213Y-46689704D01*
X139128210Y-46689708D01*
X139040609Y-46820811D01*
X139040602Y-46820824D01*
X138980264Y-46966495D01*
X138980261Y-46966507D01*
X138949500Y-47121150D01*
X127754477Y-47121150D01*
X127879786Y-47030109D01*
X127879788Y-47030106D01*
X127879792Y-47030104D01*
X128030104Y-46879792D01*
X128060685Y-46837700D01*
X128116013Y-46795034D01*
X128136797Y-46788971D01*
X128233497Y-46769737D01*
X128379179Y-46709394D01*
X128510289Y-46621789D01*
X128621789Y-46510289D01*
X128709394Y-46379179D01*
X128769737Y-46233497D01*
X128800500Y-46078842D01*
X128800500Y-45921158D01*
X128800500Y-45921155D01*
X128800499Y-45921153D01*
X128769738Y-45766510D01*
X128769737Y-45766503D01*
X128735463Y-45683757D01*
X128709397Y-45620827D01*
X128709390Y-45620814D01*
X128669408Y-45560977D01*
X128648530Y-45494300D01*
X128667014Y-45426919D01*
X128684829Y-45404405D01*
X128952416Y-45136819D01*
X129013739Y-45103334D01*
X129040097Y-45100500D01*
X156420234Y-45100500D01*
X156487273Y-45120185D01*
X156489125Y-45121398D01*
X156620814Y-45209390D01*
X156620827Y-45209397D01*
X156766498Y-45269735D01*
X156766503Y-45269737D01*
X156879326Y-45292179D01*
X156921153Y-45300499D01*
X156921156Y-45300500D01*
X156921158Y-45300500D01*
X157078844Y-45300500D01*
X157078845Y-45300499D01*
X157233497Y-45269737D01*
X157379179Y-45209394D01*
X157510289Y-45121789D01*
X157621789Y-45010289D01*
X157709394Y-44879179D01*
X157769737Y-44733497D01*
X157800500Y-44578842D01*
X157800500Y-44421158D01*
X157800500Y-44421155D01*
X157800499Y-44421153D01*
X157769738Y-44266510D01*
X157769737Y-44266503D01*
X157713728Y-44131284D01*
X157709397Y-44120827D01*
X157709390Y-44120814D01*
X157621789Y-43989711D01*
X157621786Y-43989707D01*
X157510292Y-43878213D01*
X157510288Y-43878210D01*
X157379185Y-43790609D01*
X157379172Y-43790602D01*
X157233501Y-43730264D01*
X157233489Y-43730261D01*
X157078845Y-43699500D01*
X157078842Y-43699500D01*
X156921158Y-43699500D01*
X156921155Y-43699500D01*
X156766510Y-43730261D01*
X156766498Y-43730264D01*
X156620827Y-43790602D01*
X156620814Y-43790609D01*
X156489125Y-43878602D01*
X156422447Y-43899480D01*
X156420234Y-43899500D01*
X128826669Y-43899500D01*
X128826653Y-43899499D01*
X128819057Y-43899499D01*
X128660943Y-43899499D01*
X128553587Y-43928265D01*
X128508210Y-43940424D01*
X128508209Y-43940425D01*
X128458096Y-43969359D01*
X128458095Y-43969360D01*
X128422853Y-43989707D01*
X128371285Y-44019479D01*
X128371282Y-44019481D01*
X128259478Y-44131286D01*
X127664201Y-44726562D01*
X127602878Y-44760047D01*
X127533186Y-44755063D01*
X127520234Y-44749370D01*
X127518421Y-44748446D01*
X127518419Y-44748445D01*
X127421772Y-44717042D01*
X127316243Y-44682754D01*
X127316241Y-44682753D01*
X127316240Y-44682753D01*
X127154957Y-44657208D01*
X127106287Y-44649500D01*
X126893713Y-44649500D01*
X126845042Y-44657208D01*
X126683760Y-44682753D01*
X126683757Y-44682754D01*
X126527612Y-44733489D01*
X126481585Y-44748444D01*
X126292179Y-44844951D01*
X126120213Y-44969890D01*
X125969890Y-45120213D01*
X125844949Y-45292182D01*
X125840484Y-45300946D01*
X125792509Y-45351742D01*
X125724688Y-45368536D01*
X125658553Y-45345998D01*
X125619516Y-45300946D01*
X125615050Y-45292182D01*
X125490109Y-45120213D01*
X125339786Y-44969890D01*
X125167820Y-44844951D01*
X124978414Y-44748444D01*
X124978413Y-44748443D01*
X124978412Y-44748443D01*
X124776243Y-44682754D01*
X124776241Y-44682753D01*
X124776240Y-44682753D01*
X124614957Y-44657208D01*
X124566287Y-44649500D01*
X124353713Y-44649500D01*
X124305042Y-44657208D01*
X124143760Y-44682753D01*
X124143757Y-44682754D01*
X123987612Y-44733489D01*
X123941585Y-44748444D01*
X123752179Y-44844951D01*
X123580213Y-44969890D01*
X123429890Y-45120213D01*
X123304949Y-45292182D01*
X123300484Y-45300946D01*
X123252509Y-45351742D01*
X123184688Y-45368536D01*
X123118553Y-45345998D01*
X123079516Y-45300946D01*
X123075050Y-45292182D01*
X122950109Y-45120213D01*
X122799786Y-44969890D01*
X122627820Y-44844951D01*
X122438414Y-44748444D01*
X122438413Y-44748443D01*
X122438412Y-44748443D01*
X122236243Y-44682754D01*
X122236241Y-44682753D01*
X122236240Y-44682753D01*
X122074957Y-44657208D01*
X122026287Y-44649500D01*
X121813713Y-44649500D01*
X121765042Y-44657208D01*
X121603760Y-44682753D01*
X121603757Y-44682754D01*
X121447612Y-44733489D01*
X121401585Y-44748444D01*
X121212179Y-44844951D01*
X121040213Y-44969890D01*
X120889890Y-45120213D01*
X120764949Y-45292182D01*
X120760484Y-45300946D01*
X120712509Y-45351742D01*
X120644688Y-45368536D01*
X120578553Y-45345998D01*
X120539516Y-45300946D01*
X120535050Y-45292182D01*
X120410109Y-45120213D01*
X120259786Y-44969890D01*
X120087820Y-44844951D01*
X119898414Y-44748444D01*
X119898413Y-44748443D01*
X119898412Y-44748443D01*
X119696243Y-44682754D01*
X119696241Y-44682753D01*
X119696240Y-44682753D01*
X119534957Y-44657208D01*
X119486287Y-44649500D01*
X119273713Y-44649500D01*
X119225042Y-44657208D01*
X119063760Y-44682753D01*
X119063757Y-44682754D01*
X118907612Y-44733489D01*
X118861585Y-44748444D01*
X118672179Y-44844951D01*
X118500213Y-44969890D01*
X118349890Y-45120213D01*
X118224949Y-45292182D01*
X118220484Y-45300946D01*
X118172509Y-45351742D01*
X118104688Y-45368536D01*
X118038553Y-45345998D01*
X117999516Y-45300946D01*
X117995050Y-45292182D01*
X117870109Y-45120213D01*
X117719786Y-44969890D01*
X117547820Y-44844951D01*
X117358414Y-44748444D01*
X117358413Y-44748443D01*
X117358412Y-44748443D01*
X117156243Y-44682754D01*
X117156241Y-44682753D01*
X117156240Y-44682753D01*
X116994957Y-44657208D01*
X116946287Y-44649500D01*
X116733713Y-44649500D01*
X116685042Y-44657208D01*
X116523760Y-44682753D01*
X116523757Y-44682754D01*
X116367612Y-44733489D01*
X116321585Y-44748444D01*
X116132179Y-44844951D01*
X115960213Y-44969890D01*
X115809890Y-45120213D01*
X115684949Y-45292182D01*
X115680484Y-45300946D01*
X115632509Y-45351742D01*
X115564688Y-45368536D01*
X115498553Y-45345998D01*
X115459516Y-45300946D01*
X115455050Y-45292182D01*
X115330109Y-45120213D01*
X115179786Y-44969890D01*
X115007820Y-44844951D01*
X114818414Y-44748444D01*
X114818413Y-44748443D01*
X114818412Y-44748443D01*
X114616243Y-44682754D01*
X114616241Y-44682753D01*
X114616240Y-44682753D01*
X114454957Y-44657208D01*
X114406287Y-44649500D01*
X114193713Y-44649500D01*
X114145042Y-44657208D01*
X113983760Y-44682753D01*
X113983757Y-44682754D01*
X113827612Y-44733489D01*
X113781585Y-44748444D01*
X113592179Y-44844951D01*
X113420213Y-44969890D01*
X113269890Y-45120213D01*
X113144949Y-45292182D01*
X113140484Y-45300946D01*
X113092509Y-45351742D01*
X113024688Y-45368536D01*
X112958553Y-45345998D01*
X112919516Y-45300946D01*
X112915050Y-45292182D01*
X112790109Y-45120213D01*
X112639786Y-44969890D01*
X112467820Y-44844951D01*
X112278414Y-44748444D01*
X112278413Y-44748443D01*
X112278412Y-44748443D01*
X112076243Y-44682754D01*
X112076241Y-44682753D01*
X112076240Y-44682753D01*
X111914957Y-44657208D01*
X111866287Y-44649500D01*
X111653713Y-44649500D01*
X111605042Y-44657208D01*
X111443760Y-44682753D01*
X111443757Y-44682754D01*
X111287612Y-44733489D01*
X111241585Y-44748444D01*
X111052179Y-44844951D01*
X110880213Y-44969890D01*
X110729890Y-45120213D01*
X110604951Y-45292179D01*
X110508444Y-45481585D01*
X110442753Y-45683760D01*
X110429649Y-45766498D01*
X110409500Y-45893713D01*
X83000500Y-45893713D01*
X83000500Y-32951562D01*
X119506279Y-32951562D01*
X131667279Y-32951562D01*
X131667279Y-30788076D01*
X119506279Y-30788076D01*
X119506279Y-32951562D01*
X83000500Y-32951562D01*
X83000500Y-29252135D01*
X152999500Y-29252135D01*
X152999500Y-31347870D01*
X152999501Y-31347876D01*
X153005908Y-31407483D01*
X153056202Y-31542328D01*
X153056206Y-31542335D01*
X153142452Y-31657544D01*
X153142455Y-31657547D01*
X153257664Y-31743793D01*
X153257671Y-31743797D01*
X153392517Y-31794091D01*
X153392516Y-31794091D01*
X153399444Y-31794835D01*
X153452127Y-31800500D01*
X155547872Y-31800499D01*
X155607483Y-31794091D01*
X155742331Y-31743796D01*
X155857546Y-31657546D01*
X155943796Y-31542331D01*
X155994091Y-31407483D01*
X156000500Y-31347873D01*
X156000499Y-29252128D01*
X155994091Y-29192517D01*
X155943796Y-29057669D01*
X155943795Y-29057668D01*
X155943793Y-29057664D01*
X155857547Y-28942455D01*
X155857544Y-28942452D01*
X155742335Y-28856206D01*
X155742328Y-28856202D01*
X155607482Y-28805908D01*
X155607483Y-28805908D01*
X155547883Y-28799501D01*
X155547881Y-28799500D01*
X155547873Y-28799500D01*
X155547864Y-28799500D01*
X153452129Y-28799500D01*
X153452123Y-28799501D01*
X153392516Y-28805908D01*
X153257671Y-28856202D01*
X153257664Y-28856206D01*
X153142455Y-28942452D01*
X153142452Y-28942455D01*
X153056206Y-29057664D01*
X153056202Y-29057671D01*
X153005908Y-29192517D01*
X152999501Y-29252116D01*
X152999501Y-29252123D01*
X152999500Y-29252135D01*
X83000500Y-29252135D01*
X83000500Y-26378711D01*
X93149500Y-26378711D01*
X93149500Y-26621288D01*
X93181161Y-26861785D01*
X93243947Y-27096104D01*
X93254379Y-27121288D01*
X93336776Y-27320212D01*
X93458064Y-27530289D01*
X93458066Y-27530292D01*
X93458067Y-27530293D01*
X93605733Y-27722736D01*
X93605739Y-27722743D01*
X93777256Y-27894260D01*
X93777262Y-27894265D01*
X93969711Y-28041936D01*
X94179788Y-28163224D01*
X94403900Y-28256054D01*
X94638211Y-28318838D01*
X94818586Y-28342584D01*
X94878711Y-28350500D01*
X94878712Y-28350500D01*
X95121289Y-28350500D01*
X95169388Y-28344167D01*
X95361789Y-28318838D01*
X95596100Y-28256054D01*
X95820212Y-28163224D01*
X96030289Y-28041936D01*
X96222738Y-27894265D01*
X96394265Y-27722738D01*
X96541936Y-27530289D01*
X96663224Y-27320212D01*
X96756054Y-27096100D01*
X96814304Y-26878711D01*
X180649500Y-26878711D01*
X180649500Y-27121288D01*
X180681161Y-27361785D01*
X180743947Y-27596104D01*
X180796400Y-27722736D01*
X180836776Y-27820212D01*
X180958064Y-28030289D01*
X180958066Y-28030292D01*
X180958067Y-28030293D01*
X181105733Y-28222736D01*
X181105739Y-28222743D01*
X181277256Y-28394260D01*
X181277262Y-28394265D01*
X181469711Y-28541936D01*
X181679788Y-28663224D01*
X181903900Y-28756054D01*
X182138211Y-28818838D01*
X182318586Y-28842584D01*
X182378711Y-28850500D01*
X182378712Y-28850500D01*
X182621289Y-28850500D01*
X182669388Y-28844167D01*
X182861789Y-28818838D01*
X183096100Y-28756054D01*
X183320212Y-28663224D01*
X183530289Y-28541936D01*
X183722738Y-28394265D01*
X183894265Y-28222738D01*
X184041936Y-28030289D01*
X184163224Y-27820212D01*
X184256054Y-27596100D01*
X184318838Y-27361789D01*
X184350500Y-27121288D01*
X184350500Y-26878712D01*
X184318838Y-26638211D01*
X184256054Y-26403900D01*
X184163224Y-26179788D01*
X184041936Y-25969711D01*
X183894265Y-25777262D01*
X183894260Y-25777256D01*
X183722743Y-25605739D01*
X183722736Y-25605733D01*
X183530293Y-25458067D01*
X183530292Y-25458066D01*
X183530289Y-25458064D01*
X183320212Y-25336776D01*
X183320205Y-25336773D01*
X183096104Y-25243947D01*
X182861785Y-25181161D01*
X182621289Y-25149500D01*
X182621288Y-25149500D01*
X182378712Y-25149500D01*
X182378711Y-25149500D01*
X182138214Y-25181161D01*
X181903895Y-25243947D01*
X181679794Y-25336773D01*
X181679785Y-25336777D01*
X181469706Y-25458067D01*
X181277263Y-25605733D01*
X181277256Y-25605739D01*
X181105739Y-25777256D01*
X181105733Y-25777263D01*
X180958067Y-25969706D01*
X180836777Y-26179785D01*
X180836773Y-26179794D01*
X180743947Y-26403895D01*
X180681161Y-26638214D01*
X180649500Y-26878711D01*
X96814304Y-26878711D01*
X96818838Y-26861789D01*
X96850500Y-26621288D01*
X96850500Y-26378712D01*
X96818838Y-26138211D01*
X96756054Y-25903900D01*
X96663224Y-25679788D01*
X96541936Y-25469711D01*
X96394265Y-25277262D01*
X96394260Y-25277256D01*
X96222743Y-25105739D01*
X96222736Y-25105733D01*
X96030293Y-24958067D01*
X96030292Y-24958066D01*
X96030289Y-24958064D01*
X95820212Y-24836776D01*
X95820205Y-24836773D01*
X95596104Y-24743947D01*
X95361785Y-24681161D01*
X95121289Y-24649500D01*
X95121288Y-24649500D01*
X94878712Y-24649500D01*
X94878711Y-24649500D01*
X94638214Y-24681161D01*
X94403895Y-24743947D01*
X94179794Y-24836773D01*
X94179785Y-24836777D01*
X93969706Y-24958067D01*
X93777263Y-25105733D01*
X93777256Y-25105739D01*
X93605739Y-25277256D01*
X93605733Y-25277263D01*
X93458067Y-25469706D01*
X93336777Y-25679785D01*
X93336773Y-25679794D01*
X93243947Y-25903895D01*
X93181161Y-26138214D01*
X93149500Y-26378711D01*
X83000500Y-26378711D01*
X83000500Y-18624500D01*
X83020185Y-18557461D01*
X83072989Y-18511706D01*
X83124500Y-18500500D01*
X188875500Y-18500500D01*
X188942539Y-18520185D01*
G37*
%TD.AperFunction*%
%TD*%
M02*
